<?xml version="1.0" encoding="utf-8"?>
<!-- Generator: Adobe Illustrator 15.0.0, SVG Export Plug-In . SVG Version: 6.00 Build 0)  -->
<!DOCTYPE svg PUBLIC "-//W3C//DTD SVG 1.1//EN" "http://www.w3.org/Graphics/SVG/1.1/DTD/svg11.dtd">
<svg version="1.1" xmlns="http://www.w3.org/2000/svg" xmlns:xlink="http://www.w3.org/1999/xlink" x="0px" y="0px" width="500px"
	 height="541px" viewBox="0 0 500 541" enable-background="new 0 0 500 541" xml:space="preserve">
<g id="Layer_1" display="none" opacity="0.39">
	
		<image display="inline" overflow="visible" width="512" height="512" xlink:href="DE1D9D0C.png"  transform="matrix(0.9999 0 0 0.9999 -6 35)">
	</image>
</g>
<g id="Layer_2">
	<path fill="none" stroke="#000000" stroke-width="4" stroke-miterlimit="10" d="M250,486l-0.001-0.332
		C281.625,482.454,390.66,382.269,362.129,277c-29-107-5-97-5-129C357,42.75,248,43,248,43s-105,4-105,105c0,32,24,22-5,129
		S221.25,486,250,486z"/>
</g>
<g id="Layer_3">
	<path fill="none" stroke="#000000" stroke-width="4" stroke-miterlimit="10" d="M149,174c0,0,9,33,105,33c89,0,97-30,97-30"/>
	<path fill="none" stroke="#000000" stroke-width="4" stroke-miterlimit="10" d="M333,127c-1-67-84-69-84-69s-83,2-84,69
		c0,30.143,58.614,36.648,83,36.985V164c0.325,0,0.66-0.001,1-0.004c0.34,0.002,0.675,0.004,1,0.004v-0.015
		C274.386,163.648,333,157.143,333,127z"/>
	<path fill="none" stroke="#000000" stroke-width="4" stroke-miterlimit="10" d="M337,238.914c0,0,22,77-34,141c0,0-9,3-5-16
		s6-93,6-93"/>
	<path fill="none" stroke="#000000" stroke-width="4" stroke-miterlimit="10" d="M162.234,240.914c0,0-22,77,34,141c0,0,9,3,5-16
		s-6-93-6-93"/>
</g>
<g id="Layer_4">
	<path d="M190,108.667c0,0-4.333-16,24-15.667c18.667,0.667,27.667,11.333,25.333,17.333C239.333,110.333,218.667,99,190,108.667z"
		/>
	<path d="M310.459,108.667c0,0,4.334-16-24-15.667c-18.666,0.667-27.667,11.333-25.334,17.333
		C261.125,110.333,281.793,99,310.459,108.667z"/>
</g>
</svg>
